<svg xmlns="http://www.w3.org/2000/svg" viewBox="0 0 48 48">
  <path d="M24 7a17 17 0 1017 17A17 17 0 0024 7zM10.84 19.21a3 3 0 111.8 3.85 3 3 0 01-1.8-3.85zm5.87 13.56a3 3 0 11.74-4.18 3 3 0 01-.74 4.18zM24 38a3 3 0 113-3 3 3 0 01-3 3zm11.47-6a3 3 0 11-.74-4.18 3 3 0 01.74 4.18zm-.11-9a3 3 0 111.8-3.85 3 3 0 01-1.8 3.91z"/>
  <path d="M24 2a22 22 0 1022 22A22 22 0 0024 2zm0 42a20 20 0 1120-20 20 20 0 01-20 20z"/>
  <path d="M24 7a17 17 0 1017 17A17 17 0 0024 7zM10.84 19.21a3 3 0 111.8 3.85 3 3 0 01-1.8-3.85zm5.87 13.56a3 3 0 11.74-4.18 3 3 0 01-.74 4.18zM24 38a3 3 0 113-3 3 3 0 01-3 3zm11.47-6a3 3 0 11-.74-4.18 3 3 0 01.74 4.18zm-.11-9a3 3 0 111.8-3.85 3 3 0 01-1.8 3.91z"/>
  <path d="M24 7a17 17 0 1017 17A17 17 0 0024 7zM10.84 19.21a3 3 0 111.8 3.85 3 3 0 01-1.8-3.85zm5.87 13.56a3 3 0 11.74-4.18 3 3 0 01-.74 4.18zM24 38a3 3 0 113-3 3 3 0 01-3 3zm11.47-6a3 3 0 11-.74-4.18 3 3 0 01.74 4.18zm-.11-9a3 3 0 111.8-3.85 3 3 0 01-1.8 3.91z"/>
</svg>
